<svg width="32" height="32" viewBox="0 0 32 32" fill="none" xmlns="http://www.w3.org/2000/svg">
<g clip-path="url(#clip0_144_956)">
<path d="M11.2512 8.93285C11.098 8.7399 10.8744 8.6157 10.6297 8.58759C10.3849 8.55947 10.139 8.62973 9.94607 8.78292C9.75312 8.93611 9.62893 9.15967 9.60081 9.40442C9.57269 9.64918 9.64296 9.89508 9.79614 10.088L9.82849 10.1288C8.40178 11.5467 7.53413 13.4315 7.3847 15.4375C7.23527 17.4434 7.81408 19.436 9.01495 21.0497C9.10758 21.1737 9.2242 21.2779 9.35789 21.3561C9.49158 21.4342 9.63961 21.4847 9.79318 21.5045C9.94676 21.5243 10.1027 21.513 10.2519 21.4713C10.401 21.4297 10.5403 21.3584 10.6613 21.2619L15.5721 17.3632L19.0376 21.7283C19.2652 22.0149 19.5469 22.2539 19.8668 22.4316C20.1868 22.6093 20.5385 22.7223 20.9021 22.764C21.2657 22.8058 21.6339 22.7756 21.9858 22.675C22.3377 22.5745 22.6663 22.4056 22.9529 22.178C23.2395 21.9505 23.4785 21.6687 23.6562 21.3488C23.834 21.0289 23.9469 20.6771 23.9887 20.3135C24.0305 19.95 24.0002 19.5817 23.8997 19.2298C23.7991 18.878 23.6302 18.5493 23.4027 18.2627L22.8251 17.5352C22.6719 17.3423 22.4484 17.2181 22.2036 17.19C21.9588 17.1618 21.7129 17.2321 21.52 17.3853C21.327 17.5385 21.2029 17.762 21.1747 18.0068C21.1466 18.2515 21.2169 18.4974 21.3701 18.6904L21.9477 19.4179C22.1008 19.6109 22.1711 19.8568 22.143 20.1015C22.1149 20.3463 21.9907 20.5698 21.7977 20.723C21.6048 20.8762 21.3589 20.9465 21.1141 20.9183C20.8694 20.8902 20.6458 20.766 20.4926 20.5731L17.0271 16.208L21.9378 12.3093C22.434 11.9153 22.5374 11.1702 22.1037 10.6582C20.8044 9.1228 18.9952 8.10725 17.0078 7.79783C15.0204 7.4884 12.9881 7.90584 11.2835 8.97359L11.2512 8.93285Z" fill="#D18B78"/>
</g>
<defs>
<clipPath id="clip0_144_956">
<rect width="22.294" height="22.294" fill="white" transform="translate(0.06073 14.259) rotate(-38.4469)"/>
</clipPath>
</defs>
</svg>
