<svg width="30" height="22" viewBox="0 0 30 22" fill="none" xmlns="http://www.w3.org/2000/svg">
<path d="M15 1L15 4.29966ZM22 15.1414C22 13.2661 21.2625 11.4677 19.9497 10.1417C18.637 8.81565 16.8565 8.07071 15 8.07071C13.1435 8.07071 11.363 8.81565 10.0502 10.1417C8.73746 11.4677 7.99997 13.2661 7.99997 15.1414M7.12791 7.17077L5.09917 5.14202ZM28.5 15.1414H25.5118ZM4.77101 15.1414H1.5ZM24.5 5.5L22.4407 7.59933Z" fill="#A4A4A4"/>
<path d="M15 1L15 4.29966M7.12791 7.17077L5.09917 5.14202M28.5 15.1414H25.5118M4.77101 15.1414H1.5M24.5 5.5L22.4407 7.59933M22 15.1414C22 13.2661 21.2625 11.4677 19.9497 10.1417C18.637 8.81565 16.8565 8.07071 15 8.07071C13.1435 8.07071 11.363 8.81565 10.0502 10.1417C8.73746 11.4677 7.99997 13.2661 7.99997 15.1414H22Z" stroke="#A4A4A4" stroke-width="1.90909" stroke-linecap="round" stroke-linejoin="round"/>
<path d="M9 18C9 18.7029 9 19.8 9 19.8C9 20.3658 9 20.6484 9.31964 20.8242C9.63927 21 10.1531 21 11.1818 21C12.2105 21 12.7244 21 13.044 20.8242C13.3636 20.6484 13.3636 20.3658 13.3636 19.8V18M16.6364 18L18.8182 21L21 18" stroke="#A4A4A4" stroke-width="1.5" stroke-linecap="round" stroke-linejoin="round"/>
</svg>
