<svg width="83" height="91" viewBox="0 0 83 91" fill="none" xmlns="http://www.w3.org/2000/svg">
<path fill-rule="evenodd" clip-rule="evenodd" d="M60.5582 59.0371C66.319 55.0538 68.138 47.1187 64.0765 41.4128L52.5289 25.1899C49.1014 20.3747 42.5832 18.8132 37.9291 22.4565C30.4669 28.2981 23.598 35.9165 17.1008 43.1227C16.6686 43.602 16.2381 44.0796 15.8091 44.5547C11.1023 49.7672 11.5875 58.011 17.0588 62.4143L29.0438 72.0597C33.9093 75.9754 40.9499 75.3669 45.5215 71.1118C50.2023 66.7552 55.2295 62.7215 60.5582 59.0371Z" fill="black" fill-opacity="0.1"/>
<path d="M31.1012 40.5523L13.1976 35.672L26.843 22.3892L31.1012 40.5523Z" fill="#F45B31"/>
<path d="M16.6676 30.4513C16.1228 30.9829 15.7429 31.1823 15.528 31.0497L14.0358 30.1402L12.542 31.5973L13.4059 33.028C13.5577 33.2588 13.3518 33.6491 12.7881 34.199C12.4875 34.4922 12.2499 34.6934 12.0753 34.8026C11.8946 34.9056 11.7951 34.9476 11.7767 34.9288L7.23557 26.9467C7.1867 26.8966 7.59128 26.453 8.44932 25.616C9.30736 24.7791 9.76082 24.3856 9.80969 24.4357L17.6481 29.2199C17.6909 29.2638 17.5805 29.4387 17.3168 29.7448C17.0531 30.0509 16.8367 30.2864 16.6676 30.4513ZM11.6131 30.1751L12.5995 29.2129L10.2798 27.6806L10.2234 27.7355L11.6131 30.1751ZM24.9753 22.3293C24.4179 22.8731 24.0781 23.0823 23.9559 22.957L20.0838 19.3822L22.6583 24.3144C22.7065 24.414 22.5302 24.6593 22.1294 25.0503C21.7286 25.4413 21.4883 25.6085 21.4086 25.5518L16.4584 22.8453L19.9833 26.722C20.0687 26.8221 20.0139 27.0039 19.8188 27.2676C19.6176 27.5249 19.4387 27.73 19.2821 27.8827C19.1318 28.0293 18.9755 28.1635 18.8131 28.2852C18.4697 28.5346 18.2462 28.5999 18.1425 28.4811L12.4019 22.1638C12.2553 22.0135 12.5641 21.5657 13.3282 20.8203C13.5536 20.6004 13.8475 20.3504 14.2099 20.0703C14.5661 19.7839 14.8119 19.6725 14.9472 19.736L18.886 21.669L16.9109 17.8022C16.8084 17.5844 17.1612 17.0814 17.9691 16.2933C18.2008 16.0673 18.4947 15.8172 18.8508 15.5432C19.207 15.2569 19.4279 15.1575 19.5134 15.2452L25.7974 21.1423C25.8647 21.2112 25.7914 21.3805 25.5777 21.65C25.364 21.9196 25.1632 22.146 24.9753 22.3293Z" fill="#D18B78"/>
</svg>
