<svg width="38" height="30" viewBox="0 0 38 30" fill="none" xmlns="http://www.w3.org/2000/svg">
<g filter="url(#filter0_d_166_25)">
<path d="M19 1L19 4.29966ZM26 15.1414C26 13.2661 25.2625 11.4677 23.9497 10.1417C22.637 8.81565 20.8565 8.07071 19 8.07071C17.1435 8.07071 15.363 8.81565 14.0502 10.1417C12.7375 11.4677 12 13.2661 12 15.1414M11.1279 7.17077L9.09917 5.14202ZM32.5 15.1414H29.5118ZM8.77101 15.1414H5.5ZM28.5 5.5L26.4407 7.59933Z" fill="#95A998"/>
<path d="M19 1L19 4.29966M11.1279 7.17077L9.09917 5.14202M32.5 15.1414H29.5118M8.77101 15.1414H5.5M28.5 5.5L26.4407 7.59933M26 15.1414C26 13.2661 25.2625 11.4677 23.9497 10.1417C22.637 8.81565 20.8565 8.07071 19 8.07071C17.1435 8.07071 15.363 8.81565 14.0502 10.1417C12.7375 11.4677 12 13.2661 12 15.1414H26Z" stroke="#95A998" stroke-width="1.90909" stroke-linecap="round" stroke-linejoin="round"/>
<path d="M13 18C13 18.7029 13 19.8 13 19.8C13 20.3658 13 20.6484 13.3196 20.8242C13.6393 21 14.1531 21 15.1818 21C16.2105 21 16.7244 21 17.044 20.8242C17.3636 20.6484 17.3636 20.3658 17.3636 19.8V18M20.6364 18L22.8182 21L25 18" stroke="#95A998" stroke-width="1.5" stroke-linecap="round" stroke-linejoin="round"/>
</g>
<defs>
<filter id="filter0_d_166_25" x="0.54541" y="0.0454407" width="36.9091" height="29.7046" filterUnits="userSpaceOnUse" color-interpolation-filters="sRGB">
<feFlood flood-opacity="0" result="BackgroundImageFix"/>
<feColorMatrix in="SourceAlpha" type="matrix" values="0 0 0 0 0 0 0 0 0 0 0 0 0 0 0 0 0 0 127 0" result="hardAlpha"/>
<feOffset dy="4"/>
<feGaussianBlur stdDeviation="2"/>
<feComposite in2="hardAlpha" operator="out"/>
<feColorMatrix type="matrix" values="0 0 0 0 0 0 0 0 0 0 0 0 0 0 0 0 0 0 0.25 0"/>
<feBlend mode="normal" in2="BackgroundImageFix" result="effect1_dropShadow_166_25"/>
<feBlend mode="normal" in="SourceGraphic" in2="effect1_dropShadow_166_25" result="shape"/>
</filter>
</defs>
</svg>
