<svg width="32" height="32" viewBox="0 0 32 32" fill="none" xmlns="http://www.w3.org/2000/svg">
<g clip-path="url(#clip0_144_1207)">
<path d="M11.2512 8.93285C11.098 8.7399 10.8745 8.6157 10.6297 8.58759C10.385 8.55947 10.1391 8.62973 9.94613 8.78292C9.75318 8.93611 9.62899 9.15967 9.60087 9.40442C9.57275 9.64918 9.64302 9.89508 9.7962 10.088L9.82855 10.1288C8.40184 11.5467 7.5342 13.4315 7.38477 15.4375C7.23534 17.4434 7.81414 19.436 9.01501 21.0497C9.10764 21.1737 9.22426 21.2779 9.35795 21.3561C9.49164 21.4342 9.63967 21.4847 9.79324 21.5045C9.94682 21.5243 10.1028 21.513 10.2519 21.4713C10.4011 21.4297 10.5403 21.3584 10.6614 21.2619L15.5721 17.3632L19.0377 21.7283C19.2652 22.0149 19.547 22.2539 19.8669 22.4316C20.1868 22.6093 20.5386 22.7223 20.9022 22.764C21.2657 22.8058 21.634 22.7756 21.9859 22.675C22.3377 22.5745 22.6664 22.4056 22.953 22.178C23.2396 21.9505 23.4786 21.6687 23.6563 21.3488C23.834 21.0289 23.947 20.6771 23.9888 20.3135C24.0305 19.95 24.0003 19.5817 23.8997 19.2298C23.7992 18.878 23.6303 18.5493 23.4028 18.2627L22.8252 17.5352C22.672 17.3423 22.4484 17.2181 22.2037 17.19C21.9589 17.1618 21.713 17.2321 21.5201 17.3853C21.3271 17.5385 21.2029 17.762 21.1748 18.0068C21.1467 18.2515 21.2169 18.4974 21.3701 18.6904L21.9477 19.4179C22.1009 19.6109 22.1712 19.8568 22.1431 20.1015C22.1149 20.3463 21.9907 20.5698 21.7978 20.723C21.6048 20.8762 21.359 20.9465 21.1142 20.9183C20.8694 20.8902 20.6459 20.766 20.4927 20.5731L17.0271 16.208L21.9379 12.3093C22.434 11.9153 22.5375 11.1702 22.1037 10.6582C20.8045 9.1228 18.9953 8.10725 17.0079 7.79783C15.0205 7.4884 12.9881 7.90584 11.2836 8.97359L11.2512 8.93285Z" fill="#ECCD89"/>
</g>
<defs>
<clipPath id="clip0_144_1207">
<rect width="22.294" height="22.294" fill="white" transform="translate(0.060791 14.259) rotate(-38.4469)"/>
</clipPath>
</defs>
</svg>
